<svg width="256" height="256" viewBox="0 0 256 256" fill="none" xmlns="http://www.w3.org/2000/svg">
<path d="M16 206.023C19.5521 206.023 22.5391 205.902 24.9609 205.66C27.4635 205.337 29.5625 204.893 31.2578 204.328C32.9531 203.682 34.3659 202.875 35.4961 201.906C36.6263 200.938 37.5951 199.807 38.4023 198.516L84.0547 126.223L40.582 53.4453H21.3281V44H151.867V53.4453H132.492L168.336 113.508L202.363 60.5898C202.605 60.2669 202.727 59.7422 202.727 59.0156C202.727 57.9661 202.161 57.1185 201.031 56.4727C199.982 55.7461 198.488 55.181 196.551 54.7773C194.613 54.293 192.272 53.9701 189.527 53.8086C186.863 53.5664 183.917 53.4453 180.688 53.4453V44H237.117V53.4453C233.565 53.4453 230.538 53.6068 228.035 53.9297C225.533 54.2526 223.434 54.737 221.738 55.3828C220.043 55.9479 218.63 56.7148 217.5 57.6836C216.451 58.5716 215.522 59.6615 214.715 60.9531L174.754 124.285L223.676 206.023H243.051V215.59H112.512V206.023H131.766L90.4727 137L50.6328 199.121C50.3906 199.525 50.2695 199.969 50.2695 200.453C50.2695 201.583 50.7943 202.512 51.8438 203.238C52.974 203.884 54.5078 204.449 56.4453 204.934C58.4635 205.337 60.8047 205.62 63.4688 205.781C66.2135 205.943 69.2005 206.023 72.4297 206.023V215.59H16V206.023Z" fill="black"/>
<path d="M40.582 53.4453L84.0547 126.223L125.225 61.0265L120.701 53.4453L40.582 53.4453Z" fill="url(#paint0_linear_2_156)"/>
<g filter="url(#filter0_i_2_156)">
<path d="M94.3326 109.947L125.225 61.0265L120.701 53.4453L60.582 53.4453L94.3326 109.947Z" fill="#309898"/>
</g>
<g filter="url(#filter1_i_2_156)">
<path d="M120.701 53.4453L125.225 61.0265L102.555 96.9265L76.582 53.4453L120.701 53.4453Z" fill="#FE9F0D"/>
</g>
<g filter="url(#filter2_i_2_156)">
<path d="M120.701 53.4453L125.225 61.0265L110.804 83.8637L92.582 53.4453L120.701 53.4453Z" fill="#F4631E"/>
</g>
<g filter="url(#filter3_i_2_156)">
<path d="M120.701 53.4453L125.225 61.0265L119 70.8854L108.582 53.4453L120.701 53.4453Z" fill="#D92E10"/>
</g>
<defs>
<filter id="filter0_i_2_156" x="60.582" y="53.4453" width="64.6434" height="56.5017" filterUnits="userSpaceOnUse" color-interpolation-filters="sRGB">
<feFlood flood-opacity="0" result="BackgroundImageFix"/>
<feBlend mode="normal" in="SourceGraphic" in2="BackgroundImageFix" result="shape"/>
<feColorMatrix in="SourceAlpha" type="matrix" values="0 0 0 0 0 0 0 0 0 0 0 0 0 0 0 0 0 0 127 0" result="hardAlpha"/>
<feOffset dx="0.2"/>
<feComposite in2="hardAlpha" operator="arithmetic" k2="-1" k3="1"/>
<feColorMatrix type="matrix" values="0 0 0 0 1 0 0 0 0 1 0 0 0 0 1 0 0 0 0.59 0"/>
<feBlend mode="normal" in2="shape" result="effect1_innerShadow_2_156"/>
</filter>
<filter id="filter1_i_2_156" x="76.582" y="53.4453" width="48.6434" height="43.4811" filterUnits="userSpaceOnUse" color-interpolation-filters="sRGB">
<feFlood flood-opacity="0" result="BackgroundImageFix"/>
<feBlend mode="normal" in="SourceGraphic" in2="BackgroundImageFix" result="shape"/>
<feColorMatrix in="SourceAlpha" type="matrix" values="0 0 0 0 0 0 0 0 0 0 0 0 0 0 0 0 0 0 127 0" result="hardAlpha"/>
<feOffset dx="0.2"/>
<feComposite in2="hardAlpha" operator="arithmetic" k2="-1" k3="1"/>
<feColorMatrix type="matrix" values="0 0 0 0 1 0 0 0 0 1 0 0 0 0 1 0 0 0 0.59 0"/>
<feBlend mode="normal" in2="shape" result="effect1_innerShadow_2_156"/>
</filter>
<filter id="filter2_i_2_156" x="92.582" y="53.4453" width="32.6434" height="30.4184" filterUnits="userSpaceOnUse" color-interpolation-filters="sRGB">
<feFlood flood-opacity="0" result="BackgroundImageFix"/>
<feBlend mode="normal" in="SourceGraphic" in2="BackgroundImageFix" result="shape"/>
<feColorMatrix in="SourceAlpha" type="matrix" values="0 0 0 0 0 0 0 0 0 0 0 0 0 0 0 0 0 0 127 0" result="hardAlpha"/>
<feOffset dx="0.2"/>
<feComposite in2="hardAlpha" operator="arithmetic" k2="-1" k3="1"/>
<feColorMatrix type="matrix" values="0 0 0 0 1 0 0 0 0 1 0 0 0 0 1 0 0 0 0.59 0"/>
<feBlend mode="normal" in2="shape" result="effect1_innerShadow_2_156"/>
</filter>
<filter id="filter3_i_2_156" x="108.582" y="53.4453" width="16.6434" height="17.4401" filterUnits="userSpaceOnUse" color-interpolation-filters="sRGB">
<feFlood flood-opacity="0" result="BackgroundImageFix"/>
<feBlend mode="normal" in="SourceGraphic" in2="BackgroundImageFix" result="shape"/>
<feColorMatrix in="SourceAlpha" type="matrix" values="0 0 0 0 0 0 0 0 0 0 0 0 0 0 0 0 0 0 127 0" result="hardAlpha"/>
<feOffset dx="0.2"/>
<feComposite in2="hardAlpha" operator="arithmetic" k2="-1" k3="1"/>
<feColorMatrix type="matrix" values="0 0 0 0 1 0 0 0 0 1 0 0 0 0 1 0 0 0 0.59 0"/>
<feBlend mode="normal" in2="shape" result="effect1_innerShadow_2_156"/>
</filter>
<linearGradient id="paint0_linear_2_156" x1="122" y1="58" x2="64" y2="92" gradientUnits="userSpaceOnUse">
<stop offset="0.738716" stop-color="#585656"/>
<stop offset="0.928529" stop-color="#727272"/>
</linearGradient>
</defs>
</svg>
