<svg width="64" height="64" viewBox="0 0 64 64" fill="none" xmlns="http://www.w3.org/2000/svg">
<path d="M4 51.5059C4.88802 51.5059 5.63477 51.4756 6.24023 51.415C6.86589 51.3343 7.39062 51.2233 7.81445 51.082C8.23828 50.9206 8.59147 50.7188 8.87402 50.4766C9.15658 50.2344 9.39876 49.9518 9.60059 49.6289L31.3064 15.2566L30.1753 13.3613L5.33203 13.3613V11H37.9668V13.3613H33.123L42.084 28.377L50.5908 15.1475C50.6514 15.0667 50.6816 14.9355 50.6816 14.7539C50.6816 14.4915 50.5404 14.2796 50.2578 14.1182C49.9954 13.9365 49.6221 13.7952 49.1377 13.6943C48.6533 13.5732 48.068 13.4925 47.3818 13.4522C46.7158 13.3916 45.9792 13.3613 45.1719 13.3613V11H59.2793V13.3613C58.3913 13.3613 57.6344 13.4017 57.0088 13.4824C56.3831 13.5632 55.8584 13.6842 55.4346 13.8457C55.0107 13.987 54.6576 14.1787 54.375 14.4209C54.1126 14.6429 53.8805 14.9154 53.6787 15.2383L43.6885 31.0713L55.9189 51.5059H60.7627V53.8975H28.1279V51.5059H32.9414L22.6182 34.25L12.6582 49.7803C12.5977 49.8812 12.5674 49.9922 12.5674 50.1133C12.5674 50.3958 12.6986 50.6279 12.9609 50.8096C13.2435 50.971 13.627 51.1123 14.1113 51.2334C14.6159 51.3343 15.2012 51.405 15.8672 51.4453C16.5534 51.4857 17.3001 51.5059 18.1074 51.5059V53.8975H4V51.5059Z" fill="white"/>
<path d="M10.1455 13.3613L21.0137 31.5557L23.5832 27.4867L15.1455 13.3613H10.1455Z" fill="white" fill-opacity="0.55"/>
<path d="M15.1455 13.3613L23.5832 27.4867L25.6387 24.2316L19.1455 13.3613H15.1455Z" fill="white" fill-opacity="0.9"/>
<path d="M19.1455 13.3613L25.6387 24.2316L27.701 20.9659L23.1455 13.3613H19.1455Z" fill="white" fill-opacity="0.3"/>
<path d="M23.1455 13.3613L27.701 20.9659L29.7499 17.7213L27.1455 13.3613H23.1455Z" fill="white" fill-opacity="0.55"/>
<path d="M30.1753 13.3613L31.3064 15.2566L29.7499 17.7213L27.1455 13.3613L30.1753 13.3613Z" fill="white" fill-opacity="0.9"/>
</svg>
