<svg width="32" height="32" viewBox="0 0 32 32" fill="none" xmlns="http://www.w3.org/2000/svg">
<g clip-path="url(#clip0_12_117)">
<rect width="32" height="32" rx="9" fill="#F7F7F7"/>
<path d="M-1.63135 44.5571C-0.743327 44.5571 0.00341797 44.5269 0.608887 44.4663C1.23454 44.3856 1.75928 44.2746 2.18311 44.1333C2.60693 43.9718 2.96012 43.77 3.24268 43.5278C3.52523 43.2856 3.76742 43.0031 3.96924 42.6802L15.3823 24.6069L4.51416 6.4126H-0.299316V4.05127H32.3354V6.4126H27.4917L36.4526 21.4282L44.9595 8.19873C45.02 8.118 45.0503 7.98682 45.0503 7.80518C45.0503 7.54281 44.909 7.33089 44.6265 7.16943C44.3641 6.98779 43.9907 6.84652 43.5063 6.74561C43.022 6.62451 42.4367 6.54378 41.7505 6.50342C41.0845 6.44287 40.3478 6.4126 39.5405 6.4126V4.05127H53.6479V6.4126C52.7599 6.4126 52.0031 6.45296 51.3774 6.53369C50.7518 6.61442 50.2271 6.73551 49.8032 6.89697C49.3794 7.03825 49.0262 7.22998 48.7437 7.47217C48.4813 7.69417 48.2492 7.96663 48.0474 8.28955L38.0571 24.1226L50.2876 44.5571H55.1313V46.9487H22.4966V44.5571H27.3101L16.9868 27.3013L7.02686 42.8315C6.96631 42.9325 6.93604 43.0435 6.93604 43.1646C6.93604 43.4471 7.06722 43.6792 7.32959 43.8608C7.61214 44.0223 7.99561 44.1636 8.47998 44.2847C8.98454 44.3856 9.56982 44.4562 10.2358 44.4966C10.922 44.5369 11.6688 44.5571 12.4761 44.5571V46.9487H-1.63135V44.5571Z" fill="black"/>
<path d="M4.51416 6.4126L15.3823 24.6069L25.675 8.30789L24.544 6.4126L4.51416 6.4126Z" fill="#C9C9C9"/>
<path d="M17.9518 20.538L25.675 8.30789L24.544 6.4126L9.51416 6.4126L17.9518 20.538Z" fill="#309898"/>
<path d="M24.544 6.4126L25.675 8.30789L20.0074 17.2829L13.5142 6.4126L24.544 6.4126Z" fill="#FE9F0D"/>
<path d="M24.544 6.4126L25.675 8.30789L22.0696 14.0172L17.5142 6.4126L24.544 6.4126Z" fill="#F4631E"/>
<path d="M24.544 6.4126L25.675 8.30789L24.1186 10.7726L21.5142 6.4126L24.544 6.4126Z" fill="#D92E10"/>
</g>
<defs>
<clipPath id="clip0_12_117">
<rect width="32" height="32" rx="9" fill="white"/>
</clipPath>
</defs>
</svg>
