<svg width="57" height="43" viewBox="0 0 57 43" fill="none" xmlns="http://www.w3.org/2000/svg">
<g clip-path="url(#clip0_67_28)">
<path d="M0 40.5059C0.888021 40.5059 1.63477 40.4756 2.24023 40.415C2.86589 40.3343 3.39062 40.2233 3.81445 40.082C4.23828 39.9206 4.59147 39.7188 4.87402 39.4766C5.15658 39.2344 5.39876 38.9518 5.60059 38.6289L17.0137 20.5557L6.14551 2.36133H1.33203V0H33.9668V2.36133H29.123L38.084 17.377L46.5908 4.14746C46.6514 4.06673 46.6816 3.93555 46.6816 3.75391C46.6816 3.49154 46.5404 3.27962 46.2578 3.11816C45.9954 2.93652 45.6221 2.79525 45.1377 2.69434C44.6533 2.57324 44.068 2.49251 43.3818 2.45215C42.7158 2.3916 41.9792 2.36133 41.1719 2.36133V0H55.2793V2.36133C54.3913 2.36133 53.6344 2.40169 53.0088 2.48242C52.3831 2.56315 51.8584 2.68424 51.4346 2.8457C51.0107 2.98698 50.6576 3.17871 50.375 3.4209C50.1126 3.6429 49.8805 3.91536 49.6787 4.23828L39.6885 20.0713L51.9189 40.5059H56.7627V42.8975H24.1279V40.5059H28.9414L18.6182 23.25L8.6582 38.7803C8.59766 38.8812 8.56738 38.9922 8.56738 39.1133C8.56738 39.3958 8.69857 39.6279 8.96094 39.8096C9.24349 39.971 9.62695 40.1123 10.1113 40.2334C10.6159 40.3343 11.2012 40.4049 11.8672 40.4453C12.5534 40.4857 13.3001 40.5059 14.1074 40.5059V42.8975H0V40.5059Z" fill="white"/>
<path d="M6.14551 2.36133L17.0137 20.5557L27.3064 4.25662L26.1753 2.36133L6.14551 2.36133Z" fill="#DCDCDC"/>
<path d="M19.5832 16.4867L27.3064 4.25662L26.1753 2.36133L11.1455 2.36133L19.5832 16.4867Z" fill="#309898"/>
<path d="M26.1753 2.36133L27.3064 4.25662L21.6387 13.2316L15.1455 2.36133L26.1753 2.36133Z" fill="#FE9F0D"/>
<path d="M26.1753 2.36133L27.3064 4.25662L23.701 9.96592L19.1455 2.36133L26.1753 2.36133Z" fill="#F4631E"/>
<path d="M26.1753 2.36133L27.3064 4.25662L25.7499 6.72135L23.1455 2.36133L26.1753 2.36133Z" fill="#D92E10"/>
</g>
<defs>
<clipPath id="clip0_67_28">
<rect width="56.76" height="42.9" fill="white"/>
</clipPath>
</defs>
</svg>
